<?xml version="1.0" encoding="UTF-8" standalone="no"?>
<!-- Created with Inkscape (http://www.inkscape.org/) -->

<svg
   xmlns:dc="http://purl.org/dc/elements/1.1/"
   xmlns:cc="http://creativecommons.org/ns#"
   xmlns:rdf="http://www.w3.org/1999/02/22-rdf-syntax-ns#"
   xmlns:svg="http://www.w3.org/2000/svg"
   xmlns="http://www.w3.org/2000/svg"
   xmlns:sodipodi="http://sodipodi.sourceforge.net/DTD/sodipodi-0.dtd"
   xmlns:inkscape="http://www.inkscape.org/namespaces/inkscape"
   width="660.3089"
   height="244.61122"
   viewBox="0 0 174.70673 64.720051"
   version="1.1"
   id="svg8"
   inkscape:version="0.92.4 (5da689c313, 2019-01-14)"
   sodipodi:docname="clear.svg">
  <defs
     id="defs2" />
  <sodipodi:namedview
     id="base"
     pagecolor="#ffffff"
     bordercolor="#666666"
     borderopacity="1.0"
     inkscape:pageopacity="0.0"
     inkscape:pageshadow="2"
     inkscape:zoom="0.5"
     inkscape:cx="170.08035"
     inkscape:cy="6.2343247"
     inkscape:document-units="mm"
     inkscape:current-layer="flowRoot815"
     showgrid="false"
     fit-margin-top="0"
     fit-margin-left="0"
     fit-margin-right="0"
     fit-margin-bottom="25"
     inkscape:window-width="1920"
     inkscape:window-height="986"
     inkscape:window-x="-11"
     inkscape:window-y="-11"
     inkscape:window-maximized="1"
     units="px" />
  <metadata
     id="metadata5">
    <rdf:RDF>
      <cc:Work
         rdf:about="">
        <dc:format>image/svg+xml</dc:format>
        <dc:type
           rdf:resource="http://purl.org/dc/dcmitype/StillImage" />
        <dc:title />
      </cc:Work>
    </rdf:RDF>
  </metadata>
  <g
     inkscape:label="レイヤー 1"
     inkscape:groupmode="layer"
     id="layer1"
     transform="translate(110.26885,-83.042589)">
    <g
       aria-label="Clear!"
       transform="matrix(0.99733367,0,0,0.99733367,607.34986,-470.47731)"
       style="font-style:normal;font-variant:normal;font-weight:normal;font-stretch:normal;font-size:133.33334351px;line-height:0;font-family:Eustache;-inkscape-font-specification:Eustache;font-variant-ligatures:normal;font-variant-caps:normal;font-variant-numeric:normal;font-feature-settings:normal;text-align:start;letter-spacing:-4.46999979px;word-spacing:0px;writing-mode:lr-tb;text-anchor:start;fill:#000000;fill-opacity:1;stroke:none"
       id="flowRoot815">
      <path
         inkscape:connector-curvature="0"
         id="path862"
         style="font-style:normal;font-variant:normal;font-weight:normal;font-stretch:normal;font-size:133.33334351px;line-height:0;font-family:'Sitka Display';-inkscape-font-specification:'Sitka Display';font-variant-ligatures:normal;font-variant-caps:normal;font-variant-numeric:normal;font-feature-settings:normal;text-align:start;letter-spacing:-4.46999979px;word-spacing:0px;writing-mode:lr-tb;text-anchor:start;fill:#000000;fill-opacity:1;stroke:#ffffff;stroke-width:0.62821281;stroke-miterlimit:4;stroke-dasharray:none;stroke-opacity:1"
         d="m -675.84584,601.51566 v 3.46274 q -1.56382,1.30318 -3.61167,2.71806 -2.01062,1.37765 -4.39358,2.56913 -2.38296,1.15424 -5.06379,1.89892 -2.64359,0.7819 -5.43612,0.7819 -5.69676,0 -10.27651,-1.82445 -4.57975,-1.86168 -7.81908,-5.32442 -3.23933,-3.46274 -5.02655,-8.41482 -1.74999,-4.98932 -1.74999,-11.24458 0,-6.03187 1.89892,-11.02119 1.89892,-4.98931 5.24996,-8.52652 3.35103,-3.57444 7.89355,-5.51059 4.57974,-1.97339 9.90417,-1.97339 1.86168,0 4.09571,0.26064 2.27125,0.26064 4.50528,0.67021 2.23402,0.40957 4.28187,0.93084 2.04786,0.52127 3.57444,1.00531 v 12.17543 h -2.38296 l -2.23402,-6.70207 q -0.14894,-0.67021 -0.59574,-1.00531 -0.4468,-0.37234 -0.96808,-0.67021 -1.19148,-0.63297 -2.64359,-1.19148 -1.45212,-0.59574 -3.05317,-1.04254 -1.60105,-0.44681 -3.23933,-0.67021 -1.60105,-0.26064 -3.12763,-0.26064 -3.42551,0 -6.2925,1.37765 -2.82976,1.37765 -4.91485,4.17018 -2.04786,2.79253 -3.2021,6.9627 -1.11701,4.17018 -1.11701,9.718 0,11.65416 4.98931,17.53709 4.98932,5.84569 14.29775,5.84569 2.9787,0 5.36166,-0.6702 2.38296,-0.67021 4.28188,-1.67552 1.89892,-1.04255 3.3138,-2.19679 1.45211,-1.15425 2.60636,-2.15956 z" />
      <path
         inkscape:connector-curvature="0"
         id="path864"
         style="font-style:normal;font-variant:normal;font-weight:normal;font-stretch:normal;font-size:133.33334351px;line-height:0;font-family:'Sitka Display';-inkscape-font-specification:'Sitka Display';font-variant-ligatures:normal;font-variant-caps:normal;font-variant-numeric:normal;font-feature-settings:normal;text-align:start;letter-spacing:-4.46999979px;word-spacing:0px;writing-mode:lr-tb;text-anchor:start;fill:#000000;fill-opacity:1;stroke:#ffffff;stroke-width:0.62821281;stroke-miterlimit:4;stroke-dasharray:none;stroke-opacity:1"
         d="m -675.99542,610.00495 4.31911,-1.00531 q 0.70744,-0.18617 1.15425,-0.70744 0.48404,-0.55851 0.48404,-1.37765 v -43.74962 q 0,-0.96808 -0.52128,-1.60105 -0.48403,-0.63297 -1.63828,-1.04255 l -3.83507,-1.37764 v -1.26595 l 12.43606,-2.49466 v 51.53147 q 0,0.85638 0.4468,1.37765 0.48404,0.52127 1.19148,0.70744 l 3.90954,1.00531 v 1.86169 h -17.94665 z" />
      <path
         inkscape:connector-curvature="0"
         id="path866"
         style="font-style:normal;font-variant:normal;font-weight:normal;font-stretch:normal;font-size:133.33334351px;line-height:0;font-family:'Sitka Display';-inkscape-font-specification:'Sitka Display';font-variant-ligatures:normal;font-variant-caps:normal;font-variant-numeric:normal;font-feature-settings:normal;text-align:start;letter-spacing:-4.46999979px;word-spacing:0px;writing-mode:lr-tb;text-anchor:start;fill:#000000;fill-opacity:1;stroke:#ffffff;stroke-width:0.62821281;stroke-miterlimit:4;stroke-dasharray:none;stroke-opacity:1"
         d="m -625.75671,603.74969 v 2.94146 q -1.19148,1.11701 -2.7553,2.19679 -1.52658,1.07978 -3.38827,1.93615 -1.86169,0.85638 -3.984,1.41488 -2.12233,0.55851 -4.39359,0.55851 -3.72336,0 -6.81376,-1.22871 -3.0904,-1.26595 -5.32443,-3.68614 -2.23402,-2.45743 -3.46273,-6.03186 -1.22872,-3.57444 -1.22872,-8.22866 0,-3.90954 1.15425,-7.44674 1.19148,-3.57444 3.4255,-6.25527 2.23402,-2.68082 5.39889,-4.28187 3.2021,-1.60105 7.18611,-1.60105 3.4255,0 6.0691,1.26594 2.68082,1.22872 4.46804,3.23934 1.82445,2.01062 2.7553,4.61698 0.96807,2.60636 0.96807,5.32442 0,0.3351 -0.0372,0.74467 0,0.37234 -0.0373,0.78191 0,0.40957 -0.0745,0.78191 -0.0745,0.37234 -0.11171,0.67021 h -24.42532 q 0.0373,8.15418 3.16487,12.47329 3.16487,4.31912 9.38289,4.31912 2.08509,0 3.87232,-0.44681 1.78721,-0.48404 3.23933,-1.15424 1.45212,-0.70745 2.53189,-1.48935 1.11701,-0.78191 1.89892,-1.41488 z m -6.77654,-14.96796 q 0,-2.42019 -0.40957,-4.57975 -0.40957,-2.19679 -1.34042,-3.83507 -0.93084,-1.67552 -2.42019,-2.6436 -1.48935,-0.96807 -3.6489,-0.96807 -2.08509,0 -3.76061,0.85637 -1.63828,0.85638 -2.90423,2.42019 -1.22871,1.52659 -2.04785,3.76061 -0.78191,2.23402 -1.11701,4.98932 z" />
      <path
         inkscape:connector-curvature="0"
         id="path868"
         style="font-style:normal;font-variant:normal;font-weight:normal;font-stretch:normal;font-size:133.33334351px;line-height:0;font-family:'Sitka Display';-inkscape-font-specification:'Sitka Display';font-variant-ligatures:normal;font-variant-caps:normal;font-variant-numeric:normal;font-feature-settings:normal;text-align:start;letter-spacing:-4.46999979px;word-spacing:0px;writing-mode:lr-tb;text-anchor:start;fill:#000000;fill-opacity:1;stroke:#ffffff;stroke-width:0.62821281;stroke-miterlimit:4;stroke-dasharray:none;stroke-opacity:1"
         d="m -600.02391,606.43051 q -1.34041,2.01062 -2.94146,3.23934 -1.56382,1.19148 -3.2021,1.86168 -1.63829,0.67021 -3.23934,0.85638 -1.56381,0.2234 -2.90423,0.2234 -2.23402,0 -4.02124,-0.78191 -1.78722,-0.81914 -3.0904,-2.15955 -1.26595,-1.37765 -1.97338,-3.16487 -0.70745,-1.78722 -0.70745,-3.7606 0,-2.34573 0.81915,-4.17018 0.81914,-1.82445 2.19678,-3.2021 1.37766,-1.37765 3.16487,-2.34573 1.78722,-0.96807 3.68614,-1.56381 1.89892,-0.63298 3.79784,-0.89361 1.93615,-0.29787 3.61167,-0.29787 0.3351,0 1.00531,0.0745 0.67021,0.0372 1.37765,0.1117 0.74468,0.0372 1.41488,0.1117 0.70744,0.0372 1.07978,0.0372 l 0.0373,-6.47867 q 0,-1.86168 -0.37234,-3.09039 -0.3351,-1.22872 -1.04254,-1.93616 -0.70744,-0.74467 -1.78722,-1.00531 -1.07978,-0.29787 -2.53189,-0.29787 -1.82446,0 -3.61167,0.63297 -1.74999,0.59574 -3.31381,1.52659 -1.56382,0.89361 -2.90423,1.89892 -1.34041,0.96807 -2.27125,1.67551 h -0.93085 l -1.00531,-6.14356 q 1.19148,-0.59574 2.56913,-1.19148 1.37765,-0.59574 2.94147,-1.07978 1.60104,-0.48404 3.38826,-0.7819 1.78722,-0.29787 3.79784,-0.29787 2.34573,0 4.76592,0.63297 2.42019,0.59574 4.35634,1.97339 1.97339,1.37764 3.2021,3.72337 1.22872,2.30849 1.19148,5.65952 l -0.18617,19.73388 q 0,0.5585 0.18617,1.04254 0.2234,0.44681 0.63297,0.78191 0.40958,0.3351 0.96808,0.52127 0.59574,0.14894 1.37765,0.14894 0.2234,0 0.63297,-0.0745 0.40958,-0.0745 0.89361,-0.18617 0.52128,-0.1117 1.00531,-0.26064 0.52128,-0.14893 0.89361,-0.26063 h 0.40957 v 2.01062 q -0.52127,0.40957 -1.37764,0.96807 -0.85638,0.52128 -1.86169,1.00532 -1.00531,0.48403 -2.08509,0.81914 -1.04254,0.3351 -2.01062,0.3351 -1.45211,0 -2.56913,-0.3351 -1.11701,-0.29787 -1.89892,-1.00531 -0.74467,-0.70744 -1.11701,-1.89892 -0.3351,-1.19148 -0.3351,-2.94147 z m 0.0745,-13.66477 q -3.46274,0 -6.2925,0.48404 -2.82977,0.4468 -4.80315,1.48934 -1.97339,1.00532 -3.05317,2.6436 -1.07977,1.63828 -1.07977,3.94677 0,1.97339 0.59573,3.3138 0.59575,1.30318 1.52659,2.12233 0.93084,0.81914 2.08509,1.19148 1.19148,0.3351 2.27126,0.3351 1.07978,0 2.30848,-0.2234 1.22872,-0.22341 2.38296,-0.70744 1.15425,-0.48404 2.19679,-1.22872 1.04255,-0.74467 1.78722,-1.78722 z" />
      <path
         inkscape:connector-curvature="0"
         id="path870"
         style="font-style:normal;font-variant:normal;font-weight:normal;font-stretch:normal;font-size:133.33334351px;line-height:0;font-family:'Sitka Display';-inkscape-font-specification:'Sitka Display';font-variant-ligatures:normal;font-variant-caps:normal;font-variant-numeric:normal;font-feature-settings:normal;text-align:start;letter-spacing:-4.46999979px;word-spacing:0px;writing-mode:lr-tb;text-anchor:start;fill:#000000;fill-opacity:1;stroke:#ffffff;stroke-width:0.62821281;stroke-miterlimit:4;stroke-dasharray:none;stroke-opacity:1"
         d="m -585.42209,610.00495 4.2074,-1.00531 q 0.74468,-0.18617 1.19148,-0.70744 0.48404,-0.55851 0.48404,-1.37765 v -24.72319 q 0,-0.96808 -0.5585,-1.63828 -0.52128,-0.67021 -1.67552,-1.07978 l -3.61168,-1.34042 v -1.30318 l 11.84033,-2.45742 v 8.22865 h 0.0745 q 1.04254,-1.63828 2.19679,-3.16487 1.15424,-1.52658 2.53189,-2.71806 1.41488,-1.19148 3.01594,-1.93615 1.63827,-0.74467 3.61166,-0.74467 1.00531,0 1.78722,0.1117 0.78191,0.0745 1.41488,0.26063 0.67021,0.14894 1.22872,0.40957 0.59574,0.22341 1.22871,0.52128 v 8.82439 h -2.34572 l -1.19149,-3.0904 q -0.14893,-0.37234 -0.63297,-0.67021 -0.4468,-0.29787 -1.07977,-0.48404 -0.59574,-0.18616 -1.26595,-0.29787 -0.67021,-0.1117 -1.26595,-0.1117 -1.37765,0 -2.60636,0.37234 -1.19148,0.37234 -2.30849,1.07978 -1.07978,0.6702 -2.04786,1.67552 -0.96807,0.96807 -1.89892,2.19678 v 22.0796 q 0,0.85638 0.44681,1.37765 0.4468,0.52127 1.19148,0.70744 l 4.98932,1.00531 v 1.86169 h -18.95196 z" />
      <path
         inkscape:connector-curvature="0"
         id="path872"
         style="font-style:normal;font-variant:normal;font-weight:normal;font-stretch:normal;font-size:133.33334351px;line-height:0;font-family:'Sitka Display';-inkscape-font-specification:'Sitka Display';font-variant-ligatures:normal;font-variant-caps:normal;font-variant-numeric:normal;font-feature-settings:normal;text-align:start;letter-spacing:-4.46999979px;word-spacing:0px;writing-mode:lr-tb;text-anchor:start;fill:#000000;fill-opacity:1;stroke:#ffffff;stroke-width:0.62821281;stroke-miterlimit:4;stroke-dasharray:none;stroke-opacity:1"
         d="m -553.76257,560.85644 v -0.67021 h 8.48928 v 0.67021 l -3.05316,35.70714 h -2.38296 z m -0.48404,47.13789 q 0,-0.96808 0.37233,-1.82445 0.40957,-0.89361 1.04255,-1.52659 0.63297,-0.6702 1.48935,-1.04254 0.8936,-0.37234 1.86168,-0.37234 0.96808,0 1.82446,0.37234 0.8936,0.37234 1.56381,1.04254 0.67021,0.63298 1.04255,1.52659 0.37233,0.85637 0.37233,1.82445 0,0.96808 -0.37233,1.86169 -0.37234,0.85637 -1.04255,1.48934 -0.67021,0.63298 -1.56381,1.00532 -0.85638,0.37233 -1.82446,0.37233 -0.96808,0 -1.86168,-0.37233 -0.85638,-0.37234 -1.48935,-1.00532 -0.63298,-0.63297 -1.04255,-1.48934 -0.37233,-0.89361 -0.37233,-1.86169 z" />
      <flowRoot
         xml:space="preserve"
         id="flowRoot854"
         style="font-style:normal;font-variant:normal;font-weight:normal;font-stretch:normal;font-size:133.33334351px;line-height:0;font-family:Eustache;-inkscape-font-specification:Eustache;font-variant-ligatures:normal;font-variant-caps:normal;font-variant-numeric:normal;font-feature-settings:normal;text-align:start;letter-spacing:-4.46999979px;word-spacing:0px;writing-mode:lr-tb;text-anchor:start;fill:#000000;fill-opacity:1;stroke:none"
         transform="matrix(0.26529069,0,0,0.26529069,-690.58695,554.07345)"><flowRegion
           id="flowRegion856"><rect
             id="rect858"
             width="908"
             height="444"
             x="-314"
             y="-99.940735" /></flowRegion><flowPara
           id="flowPara860" /></flowRoot>    </g>
  </g>
</svg>
