<?xml version="1.0" encoding="UTF-8" standalone="no"?>
<!-- Created with Inkscape (http://www.inkscape.org/) -->

<svg
   xmlns:dc="http://purl.org/dc/elements/1.1/"
   xmlns:cc="http://creativecommons.org/ns#"
   xmlns:rdf="http://www.w3.org/1999/02/22-rdf-syntax-ns#"
   xmlns:svg="http://www.w3.org/2000/svg"
   xmlns="http://www.w3.org/2000/svg"
   xmlns:sodipodi="http://sodipodi.sourceforge.net/DTD/sodipodi-0.dtd"
   xmlns:inkscape="http://www.inkscape.org/namespaces/inkscape"
   width="278.94922mm"
   height="278.94922mm"
   viewBox="0 0 278.94921 278.94922"
   version="1.1"
   id="svg8"
   inkscape:version="0.92.4 (5da689c313, 2019-01-14)"
   sodipodi:docname="reset.svg"
   inkscape:export-filename="C:\Users\tomo\Desktop\kai0812.github.io\haze\img\reset.png"
   inkscape:export-xdpi="200"
   inkscape:export-ydpi="200">
  <defs
     id="defs2" />
  <sodipodi:namedview
     id="base"
     pagecolor="#ff98ff"
     bordercolor="#666666"
     borderopacity="1.0"
     inkscape:pageopacity="0"
     inkscape:pageshadow="2"
     inkscape:zoom="0.54"
     inkscape:cx="-25.653144"
     inkscape:cy="394.62793"
     inkscape:document-units="mm"
     inkscape:current-layer="flowRoot843"
     showgrid="false"
     inkscape:snap-bbox="true"
     inkscape:bbox-nodes="true"
     inkscape:snap-bbox-edge-midpoints="true"
     inkscape:bbox-paths="false"
     inkscape:object-paths="true"
     inkscape:snap-object-midpoints="true"
     inkscape:snap-center="true"
     fit-margin-top="0"
     fit-margin-left="0"
     fit-margin-right="0"
     fit-margin-bottom="0"
     inkscape:window-width="1920"
     inkscape:window-height="986"
     inkscape:window-x="-11"
     inkscape:window-y="-11"
     inkscape:window-maximized="1"
     inkscape:snap-bbox-midpoints="true" />
  <metadata
     id="metadata5">
    <rdf:RDF>
      <cc:Work
         rdf:about="">
        <dc:format>image/svg+xml</dc:format>
        <dc:type
           rdf:resource="http://purl.org/dc/dcmitype/StillImage" />
        <dc:title />
      </cc:Work>
    </rdf:RDF>
  </metadata>
  <g
     inkscape:label="レイヤー 1"
     inkscape:groupmode="layer"
     id="layer1"
     transform="translate(-30.345948,0.48414989)">
    <flowRoot
       xml:space="preserve"
       id="flowRoot827"
       style="font-style:normal;font-variant:normal;font-weight:normal;font-stretch:normal;font-size:133.33334351px;line-height:0;font-family:'BIZ UDMincho';-inkscape-font-specification:'BIZ UDMincho';font-variant-ligatures:normal;font-variant-caps:normal;font-variant-numeric:normal;font-feature-settings:normal;text-align:start;letter-spacing:-4.40999985px;word-spacing:0px;writing-mode:lr-tb;text-anchor:start;fill:#000000;fill-opacity:1;stroke:none"
       transform="scale(0.26458333)"><flowRegion
         id="flowRegion829"><rect
           id="rect831"
           width="1350"
           height="277.77777"
           x="-1298.1482"
           y="765.1123" /></flowRegion><flowPara
         id="flowPara833" /></flowRoot>    <g
       aria-label="Reset"
       transform="matrix(0.3202788,0,0,0.3202788,9.4729829,30.025856)"
       style="font-style:normal;font-variant:normal;font-weight:normal;font-stretch:normal;font-size:133.33334351px;line-height:0;font-family:Ebrima;-inkscape-font-specification:Ebrima;font-variant-ligatures:normal;font-variant-caps:normal;font-variant-numeric:normal;font-feature-settings:normal;text-align:start;letter-spacing:-4.40999985px;word-spacing:0px;writing-mode:lr-tb;text-anchor:start;fill:#000000;fill-opacity:1;stroke:none"
       id="flowRoot843">
      <circle
         style="fill:#ffffff;fill-opacity:1;fill-rule:evenodd;stroke:#000000;stroke-width:6.60882521;stroke-miterlimit:4;stroke-dasharray:none;stroke-opacity:1"
         id="path977"
         cx="500.64996"
         cy="340.21796"
         r="432.17432" />
      <g
         aria-label="RESET"
         transform="matrix(1.5146945,0,0,1.5146945,574.45464,352.80167)"
         style="font-style:normal;font-variant:normal;font-weight:normal;font-stretch:normal;font-size:133.33334351px;line-height:0;font-family:sans-serif;-inkscape-font-specification:sans-serif;font-variant-ligatures:normal;font-variant-caps:normal;font-variant-numeric:normal;font-feature-settings:normal;text-align:start;letter-spacing:-4.46999979px;word-spacing:0px;writing-mode:lr-tb;text-anchor:start;fill:#000000;fill-opacity:1;stroke:none"
         id="flowRoot979">
        <path
           d="m -169.73372,40.162274 h -16.73177 L -218.88737,1.6206047 h -18.16406 V 40.162274 h -12.89063 v -96.940111 h 27.14844 q 8.78907,0 14.64844,1.171875 5.85938,1.106771 10.54688,4.036458 5.27344,3.320313 8.20312,8.398439 2.9948,5.013021 2.9948,12.760417 0,10.481772 -5.27344,17.578127 -5.27344,7.0312501 -14.51823,10.6119796 z m -30.14323,-69.661463 q 0,-4.166667 -1.49739,-7.356772 -1.4323,-3.255208 -4.81771,-5.46875 -2.79948,-1.888021 -6.64063,-2.604167 -3.84114,-0.78125 -9.04948,-0.78125 h -15.16927 v 36.5885444 h 13.02083 q 6.1198,0 10.67709,-1.0416664 4.55729,-1.106771 7.74739,-4.036459 2.92969,-2.734375 4.29688,-6.25 1.43229,-3.58073 1.43229,-9.04948 z"
           id="path987"
           inkscape:connector-curvature="0" />
        <path
           d="m -97.836522,40.162274 h -63.867188 v -96.940111 h 63.867188 v 11.458334 h -50.976568 v 26.562502 h 50.976568 V -7.2986668 H -148.81309 V 28.70394 h 50.976568 z"
           id="path989"
           inkscape:connector-curvature="0" />
        <path
           d="m -11.355986,12.493001 q 0,5.664063 -2.669271,11.197918 -2.604167,5.533854 -7.356772,9.375001 -5.208333,4.166667 -12.17448,6.510417 -6.901042,2.34375 -16.666668,2.34375 -10.481771,0 -18.88021,-1.953125 -8.333333,-1.953125 -16.992188,-5.794271 V 18.026856 h 0.911458 q 7.356771,6.119792 16.992189,9.440105 9.635417,3.320313 18.09896,3.320313 11.979167,0 18.619793,-4.492188 6.705729,-4.492188 6.705729,-11.979168 0,-6.4453128 -3.190104,-9.5052089 -3.125,-3.059896 -9.570313,-4.7526045 -4.882813,-1.3020834 -10.61198,-2.1484377 -5.664063,-0.8463542 -12.044272,-2.1484376 -12.890626,-2.7343752 -19.140626,-9.3098963 -6.184897,-6.640626 -6.184897,-17.252606 0,-12.17448 10.286459,-19.921876 10.286459,-7.812501 26.106773,-7.812501 10.221355,0 18.750002,1.953125 8.528646,1.953125 15.104167,4.817709 v 15.234376 h -0.911458 q -5.533855,-4.6875 -14.583334,-7.747396 -8.984376,-3.125001 -18.424481,-3.125001 -10.351563,0 -16.666668,4.296876 -6.25,4.296875 -6.25,11.067709 0,6.054688 3.125,9.505209 3.125,3.450521 11.002605,5.273438 4.166667,0.911458 11.848959,2.213542 7.682292,1.302083 13.020834,2.669271 10.807293,2.8645834 16.276043,8.6588546 5.468751,5.7942713 5.468751,16.2109384 z"
           id="path991"
           inkscape:connector-curvature="0" />
        <path
           d="M 68.744335,40.162274 H 4.8771423 V -56.777837 H 68.744335 v 11.458334 H 17.767768 v 26.562502 H 68.744335 V -7.2986668 H 17.767768 V 28.70394 h 50.976567 z"
           id="path993"
           inkscape:connector-curvature="0" />
        <path
           d="M 153.92279,-45.319503 H 119.28737 V 40.162274 H 106.39674 V -45.319503 H 71.761322 v -11.458334 h 82.161468 z"
           id="path995"
           inkscape:connector-curvature="0" />
      </g>
      <flowRoot
         xml:space="preserve"
         id="flowRoot852"
         style="font-style:normal;font-variant:normal;font-weight:normal;font-stretch:normal;font-size:133.33334351px;line-height:0;font-family:'BIZ UDMincho';-inkscape-font-specification:'BIZ UDMincho';font-variant-ligatures:normal;font-variant-caps:normal;font-variant-numeric:normal;font-feature-settings:normal;text-align:start;letter-spacing:-4.46999979px;word-spacing:0px;writing-mode:lr-tb;text-anchor:start;fill:#000000;fill-opacity:1;stroke:none"><flowRegion
           id="flowRegion854"><rect
             id="rect856"
             width="174.07408"
             height="401.85184"
             x="1231.4814"
             y="273.51849" /></flowRegion><flowPara
           id="flowPara858" /></flowRoot>    </g>
  </g>
</svg>
